<svg id="visual" viewBox="0 0 900 600" width="900" height="600" xmlns="http://www.w3.org/2000/svg" xmlns:xlink="http://www.w3.org/1999/xlink" version="1.1"><path d="M0 469L13.7 468.3C27.3 467.7 54.7 466.3 82 455.8C109.3 445.3 136.7 425.7 163.8 418.2C191 410.7 218 415.3 245.2 415C272.3 414.7 299.7 409.3 327 418.5C354.3 427.7 381.7 451.3 409 458.8C436.3 466.3 463.7 457.7 491 459C518.3 460.3 545.7 471.7 573 464.2C600.3 456.7 627.7 430.3 654.8 417.8C682 405.3 709 406.7 736.2 411.8C763.3 417 790.7 426 818 436.8C845.3 447.7 872.7 460.3 886.3 466.7L900 473L900 601L886.3 601C872.7 601 845.3 601 818 601C790.7 601 763.3 601 736.2 601C709 601 682 601 654.8 601C627.7 601 600.3 601 573 601C545.7 601 518.3 601 491 601C463.7 601 436.3 601 409 601C381.7 601 354.3 601 327 601C299.7 601 272.3 601 245.2 601C218 601 191 601 163.8 601C136.7 601 109.3 601 82 601C54.7 601 27.3 601 13.7 601L0 601Z" fill="#5e90b6"></path><path d="M0 463L13.7 469.3C27.3 475.7 54.7 488.3 82 497.8C109.3 507.3 136.7 513.7 163.8 511.5C191 509.3 218 498.7 245.2 500.5C272.3 502.3 299.7 516.7 327 519.8C354.3 523 381.7 515 409 504.3C436.3 493.7 463.7 480.3 491 473.3C518.3 466.3 545.7 465.7 573 474.8C600.3 484 627.7 503 654.8 505.5C682 508 709 494 736.2 491.7C763.3 489.3 790.7 498.7 818 502.7C845.3 506.7 872.7 505.3 886.3 504.7L900 504L900 601L886.3 601C872.7 601 845.3 601 818 601C790.7 601 763.3 601 736.2 601C709 601 682 601 654.8 601C627.7 601 600.3 601 573 601C545.7 601 518.3 601 491 601C463.7 601 436.3 601 409 601C381.7 601 354.3 601 327 601C299.7 601 272.3 601 245.2 601C218 601 191 601 163.8 601C136.7 601 109.3 601 82 601C54.7 601 27.3 601 13.7 601L0 601Z" fill="#2e4d66"></path><path d="M0 534L13.7 529.8C27.3 525.7 54.7 517.3 82 515.3C109.3 513.3 136.7 517.7 163.8 523.8C191 530 218 538 245.2 543.3C272.3 548.7 299.7 551.3 327 552.2C354.3 553 381.7 552 409 546C436.3 540 463.7 529 491 525.7C518.3 522.3 545.7 526.7 573 534C600.3 541.3 627.7 551.7 654.8 557C682 562.3 709 562.7 736.2 560.7C763.3 558.7 790.7 554.3 818 545.5C845.3 536.7 872.7 523.3 886.3 516.7L900 510L900 601L886.3 601C872.7 601 845.3 601 818 601C790.7 601 763.3 601 736.2 601C709 601 682 601 654.8 601C627.7 601 600.3 601 573 601C545.7 601 518.3 601 491 601C463.7 601 436.3 601 409 601C381.7 601 354.3 601 327 601C299.7 601 272.3 601 245.2 601C218 601 191 601 163.8 601C136.7 601 109.3 601 82 601C54.7 601 27.3 601 13.7 601L0 601Z" fill="#001220"></path></svg>