<svg id="visual" viewBox="0 0 900 600" width="900" height="600" xmlns="http://www.w3.org/2000/svg" xmlns:xlink="http://www.w3.org/1999/xlink" version="1.1"><path d="M0 37L25 37C50 37 100 37 150 36C200 35 250 33 300 33C350 33 400 35 450 36C500 37 550 37 600 36C650 35 700 33 750 33C800 33 850 35 875 36L900 37L900 0L875 0C850 0 800 0 750 0C700 0 650 0 600 0C550 0 500 0 450 0C400 0 350 0 300 0C250 0 200 0 150 0C100 0 50 0 25 0L0 0Z" fill="#bcd2e8"></path><path d="M0 175L25 170C50 165 100 155 150 154C200 153 250 161 300 161C350 161 400 153 450 150C500 147 550 149 600 152C650 155 700 159 750 163C800 167 850 171 875 173L900 175L900 35L875 34C850 33 800 31 750 31C700 31 650 33 600 34C550 35 500 35 450 34C400 33 350 31 300 31C250 31 200 33 150 34C100 35 50 35 25 35L0 35Z" fill="#b3cde8"></path><path d="M0 205L25 200C50 195 100 185 150 185C200 185 250 195 300 197C350 199 400 193 450 189C500 185 550 183 600 184C650 185 700 189 750 193C800 197 850 201 875 203L900 205L900 173L875 171C850 169 800 165 750 161C700 157 650 153 600 150C550 147 500 145 450 148C400 151 350 159 300 159C250 159 200 151 150 152C100 153 50 163 25 168L0 173Z" fill="#aac8e7"></path><path d="M0 229L25 224C50 219 100 209 150 209C200 209 250 219 300 221C350 223 400 217 450 213C500 209 550 207 600 209C650 211 700 217 750 221C800 225 850 227 875 228L900 229L900 203L875 201C850 199 800 195 750 191C700 187 650 183 600 182C550 181 500 183 450 187C400 191 350 197 300 195C250 193 200 183 150 183C100 183 50 193 25 198L0 203Z" fill="#a1c3e7"></path><path d="M0 349L25 345C50 341 100 333 150 334C200 335 250 345 300 352C350 359 400 363 450 361C500 359 550 351 600 348C650 345 700 347 750 345C800 343 850 337 875 334L900 331L900 227L875 226C850 225 800 223 750 219C700 215 650 209 600 207C550 205 500 207 450 211C400 215 350 221 300 219C250 217 200 207 150 207C100 207 50 217 25 222L0 227Z" fill="#98bee6"></path><path d="M0 409L25 410C50 411 100 413 150 414C200 415 250 415 300 417C350 419 400 423 450 424C500 425 550 423 600 421C650 419 700 417 750 415C800 413 850 411 875 410L900 409L900 329L875 332C850 335 800 341 750 343C700 345 650 343 600 346C550 349 500 357 450 359C400 361 350 357 300 350C250 343 200 333 150 332C100 331 50 339 25 343L0 347Z" fill="#8eb9e6"></path><path d="M0 445L25 445C50 445 100 445 150 446C200 447 250 449 300 451C350 453 400 455 450 456C500 457 550 457 600 455C650 453 700 449 750 446C800 443 850 441 875 440L900 439L900 407L875 408C850 409 800 411 750 413C700 415 650 417 600 419C550 421 500 423 450 422C400 421 350 417 300 415C250 413 200 413 150 412C100 411 50 409 25 408L0 407Z" fill="#85b4e5"></path><path d="M0 505L25 504C50 503 100 501 150 503C200 505 250 511 300 515C350 519 400 521 450 520C500 519 550 515 600 514C650 513 700 515 750 513C800 511 850 505 875 502L900 499L900 437L875 438C850 439 800 441 750 444C700 447 650 451 600 453C550 455 500 455 450 454C400 453 350 451 300 449C250 447 200 445 150 444C100 443 50 443 25 443L0 443Z" fill="#7bafe4"></path><path d="M0 547L25 547C50 547 100 547 150 548C200 549 250 551 300 553C350 555 400 557 450 557C500 557 550 555 600 555C650 555 700 557 750 556C800 555 850 551 875 549L900 547L900 497L875 500C850 503 800 509 750 511C700 513 650 511 600 512C550 513 500 517 450 518C400 519 350 517 300 513C250 509 200 503 150 501C100 499 50 501 25 502L0 503Z" fill="#71aae4"></path><path d="M0 601L25 601C50 601 100 601 150 601C200 601 250 601 300 601C350 601 400 601 450 601C500 601 550 601 600 601C650 601 700 601 750 601C800 601 850 601 875 601L900 601L900 545L875 547C850 549 800 553 750 554C700 555 650 553 600 553C550 553 500 555 450 555C400 555 350 553 300 551C250 549 200 547 150 546C100 545 50 545 25 545L0 545Z" fill="#66a5e3"></path></svg>